<?xml version="1.0" encoding="utf-8"?>
<!-- Generator: Adobe Illustrator 19.0.0, SVG Export Plug-In . SVG Version: 6.00 Build 0)  -->
<svg version="1.1" id="Layer_1" xmlns="http://www.w3.org/2000/svg" xmlns:xlink="http://www.w3.org/1999/xlink" x="0px" y="0px"
	 viewBox="0 0 512 512" style="enable-background:new 0 0 512 512;" xml:space="preserve">
<style type="text/css">
	.st0{fill:#333333;}
</style>
<g id="XMLID_6_">
	<path id="XMLID_12_" class="st0" d="M203.7,93.2c-25.2,1.6-40.9,11.8-52.7,20.4c-11.8,8.7-18.1,14.2-36.2,14.9h-1.6
		c-18.9,0-24.4-5.5-36.2-14.9C65.3,105,48,94.8,22.8,94C9.4,94,0,102.6,0,112.9c0,12.6,11.8,14.9,18.9,14.9c18.9,0,25.2,5.5,37,14.9
		c11.8,8.7,29.1,21.2,57.4,21.2s45.6-12.6,57.4-21.2c11-8.7,17.3-14.2,33.8-14.9c1.6,0,3.9,0,5.5,0c18.1,0,24.4,6.3,36.2,14.9
		c11.8,8.7,28.3,20.4,55.1,21.2c1.6,0,3.9,0,5.5,0c26-0.8,42.5-12.6,54.3-21.2c16.5-11,23.6-14.2,40.1-14.9
		c18.1,0.8,24.4,6.3,36.2,14.9c22,12.6,40.1,20.4,57.4,20.4c9.4,0,17.3-7.1,17.3-16.5c0-9.4-7.9-16.5-17.3-16.5
		c-18.1,0-28.3-9.4-37-14.9c-11.8-8.7-28.3-19.7-54.3-20.4c-22,0-44,9.4-61.3,20.4c-11.8,8.7-18.1,14.2-36.2,14.9h-0.8
		c-18.9,0-25.2-5.5-37-14.9c-11.8-8.7-29.1-19.7-56.6-20.4h-7.9V93.2z M203.7,178.1c-25.2,1.6-40.9,11.8-52.7,20.4
		c-11.8,8.7-18.1,14.2-36.2,14.9h-1.6c-18.9,0-24.4-5.5-36.2-14.9c-11.8-8.7-29.1-18.9-54.3-19.7C9.4,178.9,0,187.6,0,197.8
		c0,12.6,11.8,14.9,18.9,14.9c18.9,0,25.2,5.5,37,14.9c11.8,8.7,29.1,21.2,57.4,21.2s45.6-12.6,57.4-21.2
		c11-8.7,17.3-14.2,33.8-14.9c1.6,0,3.9,0,5.5,0c18.1,0,24.4,6.3,36.2,14.9c11.8,8.7,28.3,20.4,55.1,21.2c1.6,0,3.9,0,5.5,0
		c26-0.8,42.5-12.6,54.3-21.2c16.5-11,23.6-14.2,40.1-14.9c18.1,0.8,24.4,6.3,36.2,14.9c22,12.6,40.1,20.4,57.4,20.4
		c9.4,0,17.3-7.1,17.3-16.5c0-9.4-7.9-16.5-17.3-16.5c-18.1,0-28.3-9.4-37-14.9c-11.8-8.7-28.3-19.7-54.3-20.4
		c-22,0-44,9.4-61.3,20.4c-11.8,8.7-18.1,14.2-36.2,14.9h-0.8c-18.9,0-25.2-5.5-37-14.9c-11.8-8.7-29.1-19.7-56.6-20.4h-7.9V178.1z
		 M203.7,263.1c-25.2,1.6-40.9,11.8-52.7,20.4c-11.8,8.7-18.1,14.2-36.2,14.9h-1.6c-18.9,0-24.4-5.5-36.2-14.9
		c-11.8-8.7-29.1-18.9-54.3-19.7C9.4,263.9,0,272.5,0,282.7c0,12.6,11.8,14.9,18.9,14.9c18.9,0,25.2,5.5,37,14.9
		c11.8,8.7,29.1,21.2,57.4,21.2s45.6-12.6,57.4-21.2c11-8.7,17.3-14.2,33.8-14.9c1.6,0,3.9,0,5.5,0c18.1,0,24.4,6.3,36.2,14.9
		c11.8,8.7,28.3,20.4,55.1,21.2c1.6,0,3.9,0,5.5,0c26-0.8,42.5-12.6,54.3-21.2c16.5-11,23.6-14.2,40.1-14.9
		c18.1,0.8,24.4,6.3,36.2,14.9c22,12.6,40.1,20.4,57.4,20.4c9.4,0,17.3-7.1,17.3-16.5s-7.9-16.5-17.3-16.5c-18.1,0-28.3-9.4-37-14.9
		c-11.8-8.7-28.3-19.7-54.3-20.4c-22,0-44,9.4-61.3,20.4c-11.8,8.7-18.1,14.2-36.2,14.9h-0.8c-18.9,0-25.2-5.5-37-14.9
		c-11.8-8.7-29.1-19.7-56.6-20.4h-7.9V263.1z M203.7,348c-25.2,1.6-40.9,11.8-52.7,20.4c-11.8,8.7-18.1,14.2-36.2,14.9h-1.6
		c-18.9,0-24.4-5.5-36.2-14.9c-11.8-8.7-29.1-18.9-54.3-19.7C9.4,348.8,0,357.5,0,367.7c0,12.6,11.8,14.9,18.9,14.9
		c18.9,0,25.2,5.5,37,14.9c11.8,8.7,29.1,21.2,57.4,21.2s45.6-12.6,57.4-21.2c11-8.7,17.3-14.2,33.8-14.9c1.6,0,3.9,0,5.5,0
		c18.1,0,24.4,6.3,36.2,14.9c11.8,8.7,28.3,20.4,55.1,21.2c1.6,0,3.9,0,5.5,0c26-0.8,42.5-12.6,54.3-21.2
		c16.5-11,23.6-14.2,40.1-14.9c18.1,0.8,24.4,6.3,36.2,14.9c22,12.6,40.1,20.4,57.4,20.4c9.4,0,17.3-7.1,17.3-16.5
		c0-9.4-7.9-16.5-17.3-16.5c-18.1,0-28.3-9.4-37-14.9c-11.8-8.7-28.3-19.7-54.3-20.4c-22,0-44,9.4-61.3,20.4
		c-11.8,8.7-18.1,14.2-36.2,14.9h-0.8c-18.9,0-25.2-5.5-37-14.9c-11.8-8.7-29.1-19.7-56.6-20.4h-7.9V348z"/>
</g>
</svg>
