<?xml version="1.0" encoding="iso-8859-1"?>
<!-- Generator: Adobe Illustrator 18.0.0, SVG Export Plug-In . SVG Version: 6.00 Build 0)  -->
<!DOCTYPE svg PUBLIC "-//W3C//DTD SVG 1.1//EN" "http://www.w3.org/Graphics/SVG/1.1/DTD/svg11.dtd">
<svg version="1.1" id="Capa_1" xmlns="http://www.w3.org/2000/svg" xmlns:xlink="http://www.w3.org/1999/xlink" x="0px" y="0px"
	 viewBox="0 0 135.528 135.528" style="enable-background:new 0 0 135.528 135.528;" xml:space="preserve">
<g>
	<linearGradient id="SVGID_1_" gradientUnits="userSpaceOnUse" x1="21.3748" y1="21.3748" x2="117.7605" y2="117.7605">
		<stop  offset="0" style="stop-color:#6EC7DB"/>
		<stop  offset="1" style="stop-color:#30AFCC"/>
	</linearGradient>
	<circle style="fill:transparent;" cx="67.764" cy="67.764" r="67.764"/>
	<g>
		<g>
			<circle style="fill:#FFF99A;" cx="67.764" cy="67.764" r="32.557"/>
			<path style="fill:#F7B400;" d="M105.182,76.388l11.866-8.163l-10.518-6.928l7.4-10.789l-13.846-3.029l2.488-14.287l-12.198,2.633
				l-2.528-12.822l-11.825,7.742l-7.968-12.09L61.25,29.579l-10.842-7.757l-2.725,14.189L33.018,33.13l2.897,12.503l-13.012,2.274
				l8.142,12.034l-12.563,8.197l11.103,7.023L21.899,85.8l13.537,2.7l-2.825,13.837l12.56-2.782l2.189,13.095l12.107-8.021
				l8.152,12.245l6.875-10.842l10.76,7.622l2.785-13.88l14.615,2.624l-2.87-12.34l12.975-2.488L105.182,76.388z M67.848,103.596
				c-19.894,0-36.021-16.127-36.021-36.021c0-19.893,16.127-36.02,36.021-36.02c19.893,0,36.021,16.127,36.021,36.02
				C103.869,87.469,87.741,103.596,67.848,103.596z"/>
		</g>
	</g>
</g>
<g>
</g>
<g>
</g>
<g>
</g>
<g>
</g>
<g>
</g>
<g>
</g>
<g>
</g>
<g>
</g>
<g>
</g>
<g>
</g>
<g>
</g>
<g>
</g>
<g>
</g>
<g>
</g>
<g>
</g>
</svg>
