<?xml version="1.0" encoding="iso-8859-1"?>
<!-- Generator: Adobe Illustrator 18.0.0, SVG Export Plug-In . SVG Version: 6.00 Build 0)  -->
<!DOCTYPE svg PUBLIC "-//W3C//DTD SVG 1.1//EN" "http://www.w3.org/Graphics/SVG/1.1/DTD/svg11.dtd">
<svg version="1.1" id="Capa_1" xmlns="http://www.w3.org/2000/svg" xmlns:xlink="http://www.w3.org/1999/xlink" x="0px" y="0px"
	 viewBox="0 0 184.921 184.921" style="enable-background:new 0 0 184.921 184.921;" xml:space="preserve">
<g>
	<g>
		<rect x="0" y="4.281" style="fill:transparent;" width="184.921" height="176.358"/>
	</g>
	<g>
		<g>
			<path style="fill:#FBB03B;" d="M81.819,33.461h33.937c1.605,0,2.684,1.645,2.045,3.117L100.94,75.42
				c-0.639,1.472,0.44,3.116,2.045,3.116h8.873c1.709,0,2.782,1.843,1.938,3.329l-39.063,68.836
				c-0.841,1.483-3.11,0.612-2.743-1.053l11.149-50.57c0.307-1.391-0.752-2.709-2.177-2.709h-11.8c-1.421,0-2.479-1.312-2.179-2.701
				l12.657-58.45C79.863,34.193,80.771,33.461,81.819,33.461z"/>
			<g>
				<path style="fill:#F7931E;" d="M117.801,36.577c0.639-1.472-0.439-3.117-2.045-3.117H92.461v86.003l21.336-37.599
					c0.844-1.486-0.229-3.329-1.938-3.329h-8.873c-1.604,0-2.684-1.645-2.045-3.116L117.801,36.577z"/>
			</g>
		</g>
	</g>
</g>
<g>
</g>
<g>
</g>
<g>
</g>
<g>
</g>
<g>
</g>
<g>
</g>
<g>
</g>
<g>
</g>
<g>
</g>
<g>
</g>
<g>
</g>
<g>
</g>
<g>
</g>
<g>
</g>
<g>
</g>
</svg>
